<svg width="65" height="64" viewBox="0 0 65 64" fill="none" xmlns="http://www.w3.org/2000/svg">
<path d="M20.8751 29.3334C18.2973 29.3334 16.0973 28.4222 14.2751 26.6C12.4529 24.7778 11.5417 22.5778 11.5417 20C11.5417 17.4222 12.4529 15.2222 14.2751 13.4C16.0973 11.5778 18.2973 10.6667 20.8751 10.6667C23.4529 10.6667 25.6529 11.5778 27.4751 13.4C29.2973 15.2222 30.2084 17.4222 30.2084 20C30.2084 22.5778 29.2973 24.7778 27.4751 26.6C25.6529 28.4222 23.4529 29.3334 20.8751 29.3334ZM20.8751 24C21.9862 24 22.9311 23.6116 23.7097 22.8347C24.4884 22.0578 24.8769 21.1129 24.8751 20C24.8733 18.8871 24.4849 17.9431 23.7097 17.168C22.9346 16.3929 21.9897 16.0036 20.8751 16C19.7604 15.9965 18.8164 16.3858 18.0431 17.168C17.2697 17.9502 16.8804 18.8942 16.8751 20C16.8697 21.1058 17.2591 22.0507 18.0431 22.8347C18.8271 23.6187 19.7711 24.0071 20.8751 24ZM44.8751 53.3334C42.2973 53.3334 40.0973 52.4222 38.2751 50.6C36.4529 48.7778 35.5417 46.5778 35.5417 44C35.5417 41.4222 36.4529 39.2222 38.2751 37.4C40.0973 35.5778 42.2973 34.6667 44.8751 34.6667C47.4529 34.6667 49.6529 35.5778 51.4751 37.4C53.2973 39.2222 54.2084 41.4222 54.2084 44C54.2084 46.5778 53.2973 48.7778 51.4751 50.6C49.6529 52.4222 47.4529 53.3334 44.8751 53.3334ZM44.8751 48C45.9862 48 46.9311 47.6116 47.7097 46.8347C48.4884 46.0578 48.8769 45.1129 48.8751 44C48.8733 42.8871 48.4849 41.9431 47.7097 41.168C46.9346 40.3929 45.9897 40.0036 44.8751 40C43.7604 39.9965 42.8164 40.3858 42.0431 41.168C41.2697 41.9502 40.8804 42.8942 40.8751 44C40.8697 45.1058 41.2591 46.0507 42.0431 46.8347C42.8271 47.6187 43.7711 48.0071 44.8751 48ZM13.4084 51.4667C12.9195 50.9778 12.6751 50.3556 12.6751 49.6C12.6751 48.8445 12.9195 48.2222 13.4084 47.7334L48.6084 12.5334C49.0973 12.0445 49.7195 11.8 50.4751 11.8C51.2306 11.8 51.8529 12.0445 52.3417 12.5334C52.8306 13.0222 53.0751 13.6445 53.0751 14.4C53.0751 15.1556 52.8306 15.7778 52.3417 16.2667L17.1417 51.4667C16.6529 51.9556 16.0306 52.2 15.2751 52.2C14.5195 52.2 13.8973 51.9556 13.4084 51.4667Z" fill="#294774"/>
</svg>
