<svg width="65" height="64" viewBox="0 0 65 64" fill="none" xmlns="http://www.w3.org/2000/svg">
<path d="M32.8749 54.2C32.2527 54.2 31.6198 54.0889 30.9763 53.8667C30.3327 53.6445 29.7656 53.2889 29.2749 52.8L24.6749 48.6C19.9638 44.2889 15.7078 40.0116 11.9069 35.768C8.10603 31.5245 6.20648 26.8462 6.20825 21.7333C6.20825 17.5556 7.60825 14.0667 10.4083 11.2667C13.2083 8.46668 16.6971 7.06668 20.8749 7.06668C23.2305 7.06668 25.4527 7.56624 27.5416 8.56535C29.6305 9.56446 31.4083 10.9316 32.8749 12.6667C34.3416 10.9333 36.1194 9.56713 38.2083 8.56801C40.2971 7.5689 42.5194 7.06846 44.8749 7.06668C49.0527 7.06668 52.5416 8.46668 55.3416 11.2667C58.1416 14.0667 59.5416 17.5556 59.5416 21.7333C59.5416 26.8445 57.6527 31.5333 53.8749 35.8C50.0971 40.0667 45.8083 44.3556 41.0083 48.6667L36.4749 52.8C35.986 53.2889 35.4198 53.6445 34.7763 53.8667C34.1327 54.0889 33.4989 54.2 32.8749 54.2ZM30.3416 18C29.0527 16.1778 27.6749 14.7885 26.2083 13.832C24.7416 12.8756 22.9638 12.3982 20.8749 12.4C18.2083 12.4 15.986 13.2889 14.2083 15.0667C12.4305 16.8445 11.5416 19.0667 11.5416 21.7333C11.5416 24.0445 12.3638 26.5005 14.0083 29.1013C15.6527 31.7022 17.6198 34.224 19.9096 36.6667C22.1994 39.1093 24.5549 41.3982 26.9763 43.5334C29.3976 45.6685 31.3638 47.424 32.8749 48.8C34.386 47.4222 36.3531 45.6667 38.7763 43.5334C41.1994 41.4 43.5549 39.1111 45.8429 36.6667C48.1309 34.2222 50.0971 31.7005 51.7416 29.1013C53.386 26.5022 54.2083 24.0462 54.2083 21.7333C54.2083 19.0667 53.3194 16.8445 51.5416 15.0667C49.7638 13.2889 47.5416 12.4 44.8749 12.4C42.786 12.4 41.0083 12.8782 39.5416 13.8347C38.0749 14.7911 36.6971 16.1796 35.4083 18C35.0971 18.4445 34.7194 18.7778 34.2749 19C33.8305 19.2222 33.3638 19.3333 32.8749 19.3333C32.386 19.3333 31.9194 19.2222 31.4749 19C31.0305 18.7778 30.6527 18.4445 30.3416 18Z" fill="#294774"/>
</svg>
