<svg width="36" height="36" viewBox="0 0 36 36" fill="none" xmlns="http://www.w3.org/2000/svg">
<path d="M4.50001 31.5C4.07501 31.5 3.71901 31.356 3.43201 31.068C3.14501 30.78 3.00101 30.424 3.00001 30C2.99901 29.576 3.14301 29.22 3.43201 28.932C3.72101 28.644 4.07701 28.5 4.50001 28.5H31.5C31.925 28.5 32.2815 28.644 32.5695 28.932C32.8575 29.22 33.001 29.576 33 30C32.999 30.424 32.855 30.7805 32.568 31.0695C32.281 31.3585 31.925 31.502 31.5 31.5H4.50001ZM6.75001 27C6.12501 27 5.59401 26.7815 5.15701 26.3445C4.72001 25.9075 4.50101 25.376 4.50001 24.75V18.75C4.50001 18.125 4.71901 17.594 5.15701 17.157C5.59501 16.72 6.126 16.501 6.75001 16.5C7.374 16.499 7.90551 16.718 8.34451 17.157C8.78351 17.596 9.00201 18.127 9 18.75V24.75C9 25.375 8.78151 25.9065 8.34451 26.3445C7.90751 26.7825 7.37601 27.001 6.75001 27ZM14.25 27C13.625 27 13.094 26.7815 12.657 26.3445C12.22 25.9075 12.001 25.376 12 24.75V11.25C12 10.625 12.219 10.094 12.657 9.657C13.095 9.22 13.626 9.001 14.25 9C14.874 8.999 15.4055 9.218 15.8445 9.657C16.2835 10.096 16.502 10.627 16.5 11.25V24.75C16.5 25.375 16.2815 25.9065 15.8445 26.3445C15.4075 26.7825 14.876 27.001 14.25 27ZM21.75 27C21.125 27 20.594 26.7815 20.157 26.3445C19.72 25.9075 19.501 25.376 19.5 24.75V15.75C19.5 15.125 19.719 14.594 20.157 14.157C20.595 13.72 21.126 13.501 21.75 13.5C22.374 13.499 22.9055 13.718 23.3445 14.157C23.7835 14.596 24.002 15.127 24 15.75V24.75C24 25.375 23.7815 25.9065 23.3445 26.3445C22.9075 26.7825 22.376 27.001 21.75 27ZM29.25 27C28.625 27 28.094 26.7815 27.657 26.3445C27.22 25.9075 27.001 25.376 27 24.75V6.75C27 6.125 27.219 5.594 27.657 5.157C28.095 4.72 28.626 4.501 29.25 4.5C29.874 4.499 30.4055 4.718 30.8445 5.157C31.2835 5.596 31.502 6.127 31.5 6.75V24.75C31.5 25.375 31.2815 25.9065 30.8445 26.3445C30.4075 26.7825 29.876 27.001 29.25 27Z" fill="black"/>
</svg>
