<svg width="65" height="64" viewBox="0 0 65 64" fill="none" xmlns="http://www.w3.org/2000/svg">
<path d="M13.275 42.64C14.0217 42.2667 14.795 42 15.595 41.84C16.395 41.68 17.2217 41.6 18.075 41.6H19.675V6.4H18.075C16.7417 6.4 15.6089 6.8672 14.6766 7.8016C13.7443 8.736 13.2771 9.8688 13.275 11.2V42.64ZM26.075 41.6H51.675V6.4H26.075V41.6ZM18.075 64C14.9817 64 12.3417 62.9067 10.155 60.72C7.96833 58.5333 6.875 55.8933 6.875 52.8V11.2C6.875 8.10667 7.96833 5.46667 10.155 3.28C12.3417 1.09333 14.9817 0 18.075 0H51.675C53.435 0 54.9422 0.626133 56.1966 1.8784C57.451 3.13067 58.0771 4.63787 58.075 6.4V46.48C58.075 46.9067 57.9022 47.2939 57.5566 47.6416C57.211 47.9893 56.5838 48.3755 55.675 48.8C54.9283 49.1733 54.3417 49.7067 53.915 50.4C53.4883 51.0933 53.275 51.8933 53.275 52.8C53.275 53.7067 53.4883 54.5205 53.915 55.2416C54.3417 55.9627 54.9283 56.4821 55.675 56.8C56.4217 57.1179 57.0083 57.5584 57.435 58.1216C57.8617 58.6848 58.075 59.2843 58.075 59.92V60.72C58.075 61.6267 57.7678 62.4 57.1534 63.04C56.539 63.68 55.7795 64 54.875 64H18.075ZM18.075 57.6H47.915C47.595 56.8533 47.3422 56.0939 47.1566 55.3216C46.971 54.5493 46.8771 53.7088 46.875 52.8C46.875 51.9467 46.955 51.12 47.115 50.32C47.275 49.52 47.5417 48.7467 47.915 48H18.075C16.6883 48 15.5417 48.4672 14.635 49.4016C13.7283 50.336 13.275 51.4688 13.275 52.8C13.275 54.1867 13.7283 55.3333 14.635 56.24C15.5417 57.1467 16.6883 57.6 18.075 57.6Z" fill="#294774"/>
</svg>
