<svg width="65" height="64" viewBox="0 0 65 64" fill="none" xmlns="http://www.w3.org/2000/svg">
<path d="M39.0167 55.4L24.75 50.4L12.35 55.2C11.9056 55.3778 11.4718 55.4338 11.0487 55.368C10.6256 55.3022 10.2371 55.1573 9.88333 54.9333C9.52956 54.7093 9.25222 54.4098 9.05133 54.0346C8.85044 53.6595 8.75 53.2258 8.75 52.7333V15.3333C8.75 14.7555 8.91711 14.2444 9.25133 13.8C9.58556 13.3555 10.0407 13.0222 10.6167 12.8L23.0167 8.59998C23.2833 8.51109 23.5616 8.44442 23.8513 8.39998C24.1411 8.35554 24.4407 8.33331 24.75 8.33331C25.0593 8.33331 25.3598 8.35554 25.6513 8.39998C25.9429 8.44442 26.2202 8.51109 26.4833 8.59998L40.75 13.6L53.15 8.79998C53.5944 8.6222 54.0282 8.56709 54.4513 8.63465C54.8744 8.7022 55.2629 8.8462 55.6167 9.06665C55.9704 9.28709 56.2487 9.58754 56.4513 9.96798C56.654 10.3484 56.7536 10.7813 56.75 11.2666V48.6666C56.75 49.2444 56.5838 49.7555 56.2513 50.2C55.9189 50.6444 55.4629 50.9778 54.8833 51.2L42.4833 55.4C42.2167 55.4889 41.9393 55.5555 41.6513 55.6C41.3633 55.6444 41.0629 55.6666 40.75 55.6666C40.4371 55.6666 40.1376 55.6444 39.8513 55.6C39.5651 55.5555 39.2869 55.4889 39.0167 55.4ZM38.0833 49.4666V18.2666L27.4167 14.5333V45.7333L38.0833 49.4666ZM43.4167 49.4666L51.4167 46.8V15.2L43.4167 18.2666V49.4666ZM14.0833 48.8L22.0833 45.7333V14.5333L14.0833 17.2V48.8Z" fill="#294774"/>
</svg>
