<svg width="69" height="69" viewBox="0 0 69 69" fill="none" xmlns="http://www.w3.org/2000/svg">
<path d="M34.7145 12.0476C37.7203 12.0476 40.603 13.2416 42.7284 15.367C44.8538 17.4924 46.0478 20.3751 46.0478 23.3809C46.0478 26.3867 44.8538 29.2694 42.7284 31.3948C40.603 33.5202 37.7203 34.7142 34.7145 34.7142C31.7087 34.7142 28.826 33.5202 26.7006 31.3948C24.5752 29.2694 23.3812 26.3867 23.3812 23.3809C23.3812 20.3751 24.5752 17.4924 26.7006 15.367C28.826 13.2416 31.7087 12.0476 34.7145 12.0476ZM34.7145 17.7142C33.2116 17.7142 31.7703 18.3113 30.7076 19.374C29.6449 20.4367 29.0478 21.878 29.0478 23.3809C29.0478 24.8838 29.6449 26.3251 30.7076 27.3878C31.7703 28.4506 33.2116 29.0476 34.7145 29.0476C36.2174 29.0476 37.6587 28.4506 38.7215 27.3878C39.7842 26.3251 40.3812 24.8838 40.3812 23.3809C40.3812 21.878 39.7842 20.4367 38.7215 19.374C37.6587 18.3113 36.2174 17.7142 34.7145 17.7142ZM34.7145 37.5476C42.2795 37.5476 57.3812 41.3159 57.3812 48.8809V57.3809H12.0479V48.8809C12.0479 41.3159 27.1495 37.5476 34.7145 37.5476ZM34.7145 42.9309C26.2995 42.9309 17.4312 47.0676 17.4312 48.8809V51.9976H51.9978V48.8809C51.9978 47.0676 43.1295 42.9309 34.7145 42.9309Z" fill="#9747FF"/>
</svg>
