<svg width="24" height="24" viewBox="0 0 24 24" fill="none" xmlns="http://www.w3.org/2000/svg">
<path d="M21.2616 10.8814C21.3496 12.4104 20.6555 13.8802 19.414 14.7779L20.1667 16.2478C20.3916 16.6917 20.4209 17.2145 20.2254 17.6781C20.0397 18.1418 19.6584 18.5068 19.1892 18.6646L18.4169 18.9112C18.2508 18.9704 18.065 19 17.8891 19C17.3905 19 16.9213 18.7731 16.5987 18.3687L14.5263 15.9025C13.6563 15.7545 12.8352 15.3797 12.1411 14.8174C11.6523 14.9654 11.1636 15.0443 10.6748 15.0443C9.81456 15.0443 8.95432 14.7779 8.23094 14.265C7.71284 14.4228 7.18497 14.4918 6.64732 14.482C5.87506 14.4918 5.11258 14.334 4.39897 14.0381C3.00108 13.4067 2.07242 12.0257 2.02354 10.4769C1.94534 9.76668 2.06264 9.04656 2.36568 8.39549C2.08219 7.65564 2.05287 6.84674 2.29725 6.09703C2.65894 5.15988 3.34322 4.38058 4.19369 3.88734C4.76066 2.22022 6.35406 1.10551 8.10386 1.22389C9.66793 -0.255813 12.0629 -0.413648 13.8029 0.858893C14.2135 0.750382 14.6436 0.691194 15.0737 0.691194C16.4032 0.6616 17.6642 1.25348 18.4951 2.309C20.4893 2.83182 21.9165 4.62719 21.9947 6.7185C22.0436 7.81348 21.7504 8.88872 21.1541 9.80614C21.2225 10.1613 21.2616 10.5164 21.2616 10.8814ZM16.3739 9.49047C16.9311 9.55952 17.371 9.9837 17.371 10.546C17.371 10.8076 17.268 11.0585 17.0847 11.2435C16.9013 11.4285 16.6527 11.5325 16.3934 11.5325H15.7776C15.4648 12.4203 14.9173 13.1996 14.194 13.7915C14.4383 13.8802 14.6925 13.9296 14.9467 13.9986C19.9615 13.9296 19.3749 10.8419 19.3749 10.7926C19.3163 9.38196 18.1432 8.27712 16.7453 8.3363C16.4861 8.3363 16.2374 8.23237 16.0541 8.04737C15.8708 7.86238 15.7678 7.61146 15.7678 7.34984C15.7678 7.08821 15.8708 6.8373 16.0541 6.6523C16.2374 6.4673 16.4861 6.36337 16.7453 6.36337C17.9477 6.39297 19.1012 6.84674 20.0006 7.64578C20.0494 7.3597 20.0788 7.06376 20.0788 6.76782C20.0201 5.54461 19.4727 4.47922 17.2732 4.27206C16.0513 1.35213 12.972 2.96993 12.972 3.87748C12.9427 4.10437 13.1773 4.58773 13.2164 4.61733C13.4757 4.61733 13.7243 4.72126 13.9076 4.90626C14.091 5.09126 14.194 5.34217 14.194 5.60379C14.194 6.14635 13.7541 6.59026 13.2164 6.59026C12.6983 6.57053 12.2095 6.37324 11.8185 6.03784C11.3493 6.34364 10.8117 6.53107 10.2545 6.59026C9.69725 6.63958 9.23781 6.245 9.20848 5.70244C9.13028 5.15002 9.53107 4.66665 10.0687 4.61733C10.2251 4.5976 10.9876 4.47922 10.9876 3.85775C10.9876 3.20668 11.232 2.58521 11.6523 2.09198C10.753 1.84536 9.78523 2.17089 8.80769 3.36452C7.00901 3.07844 6.27585 3.32506 5.7382 5.24867C4.80954 5.7123 4.32077 6.03784 4.10571 7.0243C5.16145 6.80728 6.24653 6.89606 7.2534 7.27092C7.74217 7.45835 8.01588 8.01077 7.83015 8.54346C7.64441 9.05642 7.07744 9.31291 6.56912 9.12548C5.85551 8.80981 5.05392 8.79008 4.32077 9.06629C4.00795 9.33263 4.00795 9.88506 4.00795 10.3191C4.00795 11.0491 4.36964 11.7297 4.9855 12.1243C5.50359 12.3907 6.08034 12.5288 6.65709 12.5189C6.51046 12.2624 6.38338 11.9961 6.27585 11.7199C6.09012 11.1872 6.37361 10.6052 6.90148 10.4177C7.42935 10.2303 8.0061 10.5164 8.19184 11.0491C8.58286 12.1737 9.57995 12.9431 10.753 13.0713C12.0922 13.0023 13.2848 12.2032 13.8714 10.9702C14.0962 9.60884 15.1813 9.49047 16.3739 9.49047ZM18.329 16.8594L17.7229 15.577L17.0288 15.7348L18.0064 16.9679L18.329 16.8594ZM13.7834 8.3659C13.8029 7.84307 13.4119 7.39916 12.8938 7.34984C12.1998 7.31038 11.5253 7.54713 11.0072 8.01077C10.45 8.58292 10.1567 9.37209 10.186 10.1711C10.186 10.4328 10.289 10.6837 10.4723 10.8687C10.6557 11.0537 10.9043 11.1576 11.1636 11.1576C11.7208 11.1576 12.1411 10.7137 12.1411 10.1711C12.1411 9.90478 12.2095 9.63844 12.3659 9.42142C12.4833 9.32277 12.6299 9.27345 12.7863 9.27345C13.3239 9.30304 13.7834 8.89859 13.7834 8.3659Z" fill="black"/>
</svg>
